<svg width="20" height="20" viewBox="0 0 20 20" fill="none" xmlns="http://www.w3.org/2000/svg">
<path d="M15.8333 15C17.2117 15 18.3333 13.8783 18.3333 12.5C18.3333 11.1217 17.2117 10 15.8333 10C14.455 10 13.3333 11.1217 13.3333 12.5C13.3333 13.8783 14.455 15 15.8333 15ZM15.8333 10.8333C16.7525 10.8333 17.5 11.5808 17.5 12.5C17.5 13.4192 16.7525 14.1667 15.8333 14.1667C14.9142 14.1667 14.1667 13.4192 14.1667 12.5C14.1667 11.5808 14.9142 10.8333 15.8333 10.8333ZM19.9975 19.5358C20.0233 19.7642 19.8592 19.9708 19.6308 19.9975C19.6142 19.9992 19.5992 20 19.5825 20C19.3733 20 19.1933 19.8433 19.1692 19.6308C18.9783 17.9417 17.5433 16.6667 15.8333 16.6667C14.1233 16.6667 12.6892 17.9408 12.4975 19.6308C12.4717 19.8592 12.2608 20.0183 12.0358 19.9975C11.8075 19.9717 11.6425 19.765 11.6692 19.5358C11.9092 17.425 13.6992 15.8333 15.8333 15.8333C17.9675 15.8333 19.7575 17.425 19.9975 19.5358ZM12.5 3.75C12.5 2.14167 11.1917 0.833333 9.58333 0.833333H3.75C2.14167 0.833333 0.833333 2.14167 0.833333 3.75V16.25C0.833333 17.8583 2.14167 19.1667 3.75 19.1667H9.58333C9.81333 19.1667 10 19.3533 10 19.5833C10 19.8133 9.81333 20 9.58333 20H3.75C1.6825 20 0 18.3175 0 16.25V3.75C0 1.6825 1.6825 0 3.75 0H9.58333C11.6508 0 13.3333 1.6825 13.3333 3.75V8.75C13.3333 8.98 13.1467 9.16667 12.9167 9.16667C12.6867 9.16667 12.5 8.98 12.5 8.75V3.75ZM5.83333 11.25C5.83333 11.48 5.64667 11.6667 5.41667 11.6667H3.75C3.52 11.6667 3.33333 11.48 3.33333 11.25C3.33333 11.02 3.52 10.8333 3.75 10.8333H5.41667C5.64667 10.8333 5.83333 11.02 5.83333 11.25ZM10 11.25C10 11.48 9.81333 11.6667 9.58333 11.6667H7.91667C7.68667 11.6667 7.5 11.48 7.5 11.25C7.5 11.02 7.68667 10.8333 7.91667 10.8333H9.58333C9.81333 10.8333 10 11.02 10 11.25ZM5.83333 14.5833C5.83333 14.8133 5.64667 15 5.41667 15H3.75C3.52 15 3.33333 14.8133 3.33333 14.5833C3.33333 14.3533 3.52 14.1667 3.75 14.1667H5.41667C5.64667 14.1667 5.83333 14.3533 5.83333 14.5833ZM10 14.5833C10 14.8133 9.81333 15 9.58333 15H7.91667C7.68667 15 7.5 14.8133 7.5 14.5833C7.5 14.3533 7.68667 14.1667 7.91667 14.1667H9.58333C9.81333 14.1667 10 14.3533 10 14.5833ZM5.83333 4.58333C5.83333 4.81333 5.64667 5 5.41667 5H3.75C3.52 5 3.33333 4.81333 3.33333 4.58333C3.33333 4.35333 3.52 4.16667 3.75 4.16667H5.41667C5.64667 4.16667 5.83333 4.35333 5.83333 4.58333ZM10 4.58333C10 4.81333 9.81333 5 9.58333 5H7.91667C7.68667 5 7.5 4.81333 7.5 4.58333C7.5 4.35333 7.68667 4.16667 7.91667 4.16667H9.58333C9.81333 4.16667 10 4.35333 10 4.58333ZM5.83333 7.91667C5.83333 8.14667 5.64667 8.33333 5.41667 8.33333H3.75C3.52 8.33333 3.33333 8.14667 3.33333 7.91667C3.33333 7.68667 3.52 7.5 3.75 7.5H5.41667C5.64667 7.5 5.83333 7.68667 5.83333 7.91667ZM10 7.91667C10 8.14667 9.81333 8.33333 9.58333 8.33333H7.91667C7.68667 8.33333 7.5 8.14667 7.5 7.91667C7.5 7.68667 7.68667 7.5 7.91667 7.5H9.58333C9.81333 7.5 10 7.68667 10 7.91667Z" fill="#2767B1"/>
</svg>
