<svg width="40" height="29" viewBox="0 0 40 29" fill="none" xmlns="http://www.w3.org/2000/svg">
<path d="M20 0C21.7239 0 23.3772 0.684819 24.5962 1.90381C25.8152 3.12279 26.5 4.77609 26.5 6.5C26.5 8.22391 25.8152 9.87721 24.5962 11.0962C23.3772 12.3152 21.7239 13 20 13C18.2761 13 16.6228 12.3152 15.4038 11.0962C14.1848 9.87721 13.5 8.22391 13.5 6.5C13.5 4.77609 14.1848 3.12279 15.4038 1.90381C16.6228 0.684819 18.2761 0 20 0ZM6 4.5C6.59095 4.5 7.17611 4.6164 7.72208 4.84254C8.26804 5.06869 8.76412 5.40016 9.18198 5.81802C9.59984 6.23588 9.93131 6.73196 10.1575 7.27792C10.3836 7.82389 10.5 8.40905 10.5 9C10.5 9.59095 10.3836 10.1761 10.1575 10.7221C9.93131 11.268 9.59984 11.7641 9.18198 12.182C8.76412 12.5998 8.26804 12.9313 7.72208 13.1575C7.17611 13.3836 6.59095 13.5 6 13.5C5.40905 13.5 4.82389 13.3836 4.27792 13.1575C3.73196 12.9313 3.23588 12.5998 2.81802 12.182C2.40016 11.7641 2.06869 11.268 1.84254 10.7221C1.6164 10.1761 1.5 9.59095 1.5 9C1.5 8.40905 1.6164 7.82389 1.84254 7.27792C2.06869 6.73196 2.40016 6.23588 2.81802 5.81802C3.23588 5.40016 3.73196 5.06869 4.27792 4.84254C4.82389 4.6164 5.40905 4.5 6 4.5ZM0 25C0 20.5812 3.58125 17 8 17C8.8 17 9.575 17.1187 10.3062 17.3375C8.25 19.6375 7 22.675 7 26V27C7 27.7125 7.15 28.3875 7.41875 29H2C0.89375 29 0 28.1063 0 27V25ZM32.5812 29C32.85 28.3875 33 27.7125 33 27V26C33 22.675 31.75 19.6375 29.6938 17.3375C30.425 17.1187 31.2 17 32 17C36.4188 17 40 20.5812 40 25V27C40 28.1063 39.1063 29 38 29H32.5812ZM29.5 9C29.5 7.80653 29.9741 6.66193 30.818 5.81802C31.6619 4.97411 32.8065 4.5 34 4.5C35.1935 4.5 36.3381 4.97411 37.182 5.81802C38.0259 6.66193 38.5 7.80653 38.5 9C38.5 10.1935 38.0259 11.3381 37.182 12.182C36.3381 13.0259 35.1935 13.5 34 13.5C32.8065 13.5 31.6619 13.0259 30.818 12.182C29.9741 11.3381 29.5 10.1935 29.5 9ZM10 26C10 20.475 14.475 16 20 16C25.525 16 30 20.475 30 26V27C30 28.1063 29.1063 29 28 29H12C10.8938 29 10 28.1063 10 27V26Z" fill="white"/>
</svg>
