<svg width="27" height="34" viewBox="0 0 27 34" fill="none" xmlns="http://www.w3.org/2000/svg">
<path d="M18.8571 8.11111H8.14286M18.8571 15.2222H8.14286M18.8571 22.3333H11.7143M1 1H26V33L24.1571 31.4284C23.5099 30.8762 22.6855 30.5726 21.833 30.5726C20.9806 30.5726 20.1562 30.8762 19.5089 31.4284L17.6661 33L15.825 31.4284C15.1776 30.8757 14.3529 30.5718 13.5 30.5718C12.6471 30.5718 11.8224 30.8757 11.175 31.4284L9.33393 33L7.49107 31.4284C6.8438 30.8762 6.01944 30.5726 5.16696 30.5726C4.31449 30.5726 3.49013 30.8762 2.84286 31.4284L1 33V1Z" stroke="#2769B3" stroke-width="2" stroke-linecap="round" stroke-linejoin="round"/>
</svg>
