<svg width="32" height="24" viewBox="0 0 32 24" fill="none" xmlns="http://www.w3.org/2000/svg">
<path d="M16 17.3347C13.0587 17.3347 10.6667 14.9427 10.6667 12.0013C10.6667 9.06 13.0587 6.668 16 6.668C18.9413 6.668 21.3333 9.06 21.3333 12.0013C21.3333 14.9427 18.9413 17.3347 16 17.3347ZM16 9.33467C14.5293 9.33467 13.3333 10.5307 13.3333 12.0013C13.3333 13.472 14.5293 14.668 16 14.668C17.4707 14.668 18.6667 13.472 18.6667 12.0013C18.6667 10.5307 17.4707 9.33467 16 9.33467ZM6.66667 5.33467C5.93067 5.33467 5.33333 5.932 5.33333 6.668C5.33333 7.404 5.93067 8.00133 6.66667 8.00133C7.40267 8.00133 8 7.404 8 6.668C8 5.932 7.40267 5.33467 6.66667 5.33467ZM24 9.33467C24 10.0707 24.5973 10.668 25.3333 10.668C26.0693 10.668 26.6667 10.0707 26.6667 9.33467C26.6667 8.59867 26.0693 8.00133 25.3333 8.00133C24.5973 8.00133 24 8.59867 24 9.33467ZM6.66667 13.3347C5.93067 13.3347 5.33333 13.932 5.33333 14.668C5.33333 15.404 5.93067 16.0013 6.66667 16.0013C7.40267 16.0013 8 15.404 8 14.668C8 13.932 7.40267 13.3347 6.66667 13.3347ZM24 17.3347C24 18.0707 24.5973 18.668 25.3333 18.668C26.0693 18.668 26.6667 18.0707 26.6667 17.3347C26.6667 16.5987 26.0693 16.0013 25.3333 16.0013C24.5973 16.0013 24 16.5987 24 17.3347ZM22.668 24.0013C20.4813 24.0013 18.0173 23.2973 15.6347 22.616C13.4293 21.9853 11.148 21.3347 9.33467 21.3347C5.69333 21.3347 1.936 23.072 1.89733 23.088L0 23.976V5.54533C0 4.04133 0.824 2.68133 2.15333 1.99467C3.92 1.084 6.59733 0 9.33467 0C11.5507 0 13.6893 0.713334 15.756 1.40133C17.7067 2.052 19.5493 2.66667 21.3333 2.66667C23.1813 2.66667 24.6893 2.184 25.9013 1.796C26.304 1.66667 26.6707 1.54933 27.0053 1.46133C28.2027 1.14267 29.452 1.39733 30.436 2.15467C31.4307 2.92 32.0013 4.07867 32.0013 5.33333V21.7133L31.2187 22.068C31.044 22.148 26.908 24.0013 22.668 24.0013ZM9.33467 18.668C11.5213 18.668 13.9853 19.372 16.368 20.0533C18.5747 20.684 20.8547 21.3347 22.668 21.3347C25.3347 21.3347 28.0413 20.448 29.3347 19.9587V5.33467C29.3347 4.91333 29.1427 4.52533 28.8093 4.26933C28.62 4.124 28.22 3.90133 27.6867 4.04133C27.392 4.12 27.068 4.224 26.7133 4.33733C25.3987 4.75733 23.596 5.33467 21.3333 5.33467C19.1173 5.33467 16.9787 4.62133 14.912 3.93333C12.9613 3.28267 11.1187 2.668 9.33467 2.668C7.016 2.668 4.60533 3.732 3.37467 4.36533C2.93733 4.59067 2.66533 5.04267 2.66533 5.54533V19.9213C4.30533 19.352 6.80267 18.668 9.33467 18.668Z" fill="white"/>
</svg>
